<?xml version='1.0' encoding='UTF-8' standalone='no'?>
<svg width="418pt" height="313pt" xmlns:xlink="http://www.w3.org/1999/xlink" xmlns="http://www.w3.org/2000/svg" viewBox="0 0 418 313">
 <title>Figure 1</title>
 <desc>
Creator: GL2PS 1.4.2, (C) 1999-2020 C. Geuzaine
For: Octave
CreationDate: Fri Mar 17 17:47:14 2023
</desc>
 <defs/>
 <polygon points="0,0 418,0 418,313 0,313" fill="#ffffff"/>
 <g>
  <polygon points="0,313 418,313 418,0 0,0" fill="#ffffff" shape-rendering="crispEdges"/>
  <clipPath id="cp00418313">
   <polygon points="0,313 418,313 418,0 0,0"/>
  </clipPath>
  <g clip-path="url(#cp00418313)">
   <polygon points="54.3628,276.644 378.447,276.644 378.447,23.5225 54.3628,23.5225" fill="#ffffff" shape-rendering="crispEdges"/>
   <polyline stroke-linejoin="miter" stroke="#262626" points="98.1577,276.644 98.1577,273.402" fill="none" stroke-width="2" stroke-linecap="butt"/>
   <polyline stroke-linejoin="miter" stroke="#262626" points="98.1577,23.5225 98.1577,26.7646" fill="none" stroke-width="2" stroke-linecap="butt"/>
   <polyline stroke-linejoin="miter" stroke="#262626" points="185.749,276.644 185.749,273.402" fill="none" stroke-width="2" stroke-linecap="butt"/>
   <polyline stroke-linejoin="miter" stroke="#262626" points="185.749,23.5225 185.749,26.7646" fill="none" stroke-width="2" stroke-linecap="butt"/>
   <polyline stroke-linejoin="miter" stroke="#262626" points="273.339,276.644 273.339,273.402" fill="none" stroke-width="2" stroke-linecap="butt"/>
   <polyline stroke-linejoin="miter" stroke="#262626" points="273.339,23.5225 273.339,26.7646" fill="none" stroke-width="2" stroke-linecap="butt"/>
   <polyline stroke-linejoin="miter" stroke="#262626" points="360.929,276.644 360.929,273.402" fill="none" stroke-width="2" stroke-linecap="butt"/>
   <polyline stroke-linejoin="miter" stroke="#262626" points="360.929,23.5225 360.929,26.7646" fill="none" stroke-width="2" stroke-linecap="butt"/>
   <g xml:space="preserve" font-family="FreeSans" font-style="normal" font-weight="normal" font-size="12" transform="translate(87.6578,295.648) rotate(-0,10.5,-10)">
    <text x="0 7 14 " y="-0" fill="rgb(38,38,38)">300</text>
   </g>
   <g xml:space="preserve" font-family="FreeSans" font-style="normal" font-weight="normal" font-size="12" transform="translate(175.248,295.648) rotate(-0,10.5,-10)">
    <text x="0 7 14 " y="-0" fill="rgb(38,38,38)">400</text>
   </g>
   <g xml:space="preserve" font-family="FreeSans" font-style="normal" font-weight="normal" font-size="12" transform="translate(262.839,295.648) rotate(-0,10.5,-10)">
    <text x="0 7 14 " y="-0" fill="rgb(38,38,38)">500</text>
   </g>
   <g xml:space="preserve" font-family="FreeSans" font-style="normal" font-weight="normal" font-size="12" transform="translate(350.429,295.648) rotate(-0,10.5,-10)">
    <text x="0 7 14 " y="-0" fill="rgb(38,38,38)">600</text>
   </g>
   <polyline stroke-linejoin="miter" stroke="#262626" points="54.3628,259.196 57.6045,259.196" fill="none" stroke-width="2" stroke-linecap="butt"/>
   <polyline stroke-linejoin="miter" stroke="#262626" points="378.447,259.196 375.206,259.196" fill="none" stroke-width="2" stroke-linecap="butt"/>
   <polyline stroke-linejoin="miter" stroke="#262626" points="54.3628,224.299 57.6045,224.299" fill="none" stroke-width="2" stroke-linecap="butt"/>
   <polyline stroke-linejoin="miter" stroke="#262626" points="378.447,224.299 375.206,224.299" fill="none" stroke-width="2" stroke-linecap="butt"/>
   <polyline stroke-linejoin="miter" stroke="#262626" points="54.3628,189.403 57.6045,189.403" fill="none" stroke-width="2" stroke-linecap="butt"/>
   <polyline stroke-linejoin="miter" stroke="#262626" points="378.447,189.403 375.206,189.403" fill="none" stroke-width="2" stroke-linecap="butt"/>
   <polyline stroke-linejoin="miter" stroke="#262626" points="54.3628,154.506 57.6045,154.506" fill="none" stroke-width="2" stroke-linecap="butt"/>
   <polyline stroke-linejoin="miter" stroke="#262626" points="378.447,154.506 375.206,154.506" fill="none" stroke-width="2" stroke-linecap="butt"/>
   <polyline stroke-linejoin="miter" stroke="#262626" points="54.3628,119.61 57.6045,119.61" fill="none" stroke-width="2" stroke-linecap="butt"/>
   <polyline stroke-linejoin="miter" stroke="#262626" points="378.447,119.61 375.206,119.61" fill="none" stroke-width="2" stroke-linecap="butt"/>
   <polyline stroke-linejoin="miter" stroke="#262626" points="54.3628,84.7134 57.6045,84.7134" fill="none" stroke-width="2" stroke-linecap="butt"/>
   <polyline stroke-linejoin="miter" stroke="#262626" points="378.447,84.7134 375.206,84.7134" fill="none" stroke-width="2" stroke-linecap="butt"/>
   <polyline stroke-linejoin="miter" stroke="#262626" points="54.3628,49.8169 57.6045,49.8169" fill="none" stroke-width="2" stroke-linecap="butt"/>
   <polyline stroke-linejoin="miter" stroke="#262626" points="378.447,49.8169 375.206,49.8169" fill="none" stroke-width="2" stroke-linecap="butt"/>
   <g xml:space="preserve" font-family="FreeSans" font-style="normal" font-weight="normal" font-size="12" transform="translate(27.361,264.196) rotate(-0,21,-5)">
    <text x="0 7 14 " y="-0" fill="rgb(38,38,38)">260</text>
   </g>
   <g xml:space="preserve" font-family="FreeSans" font-style="normal" font-weight="normal" font-size="12" transform="translate(27.361,229.299) rotate(-0,21,-5)">
    <text x="0 7 14 " y="-0" fill="rgb(38,38,38)">280</text>
   </g>
   <g xml:space="preserve" font-family="FreeSans" font-style="normal" font-weight="normal" font-size="12" transform="translate(27.361,194.403) rotate(-0,21,-5)">
    <text x="0 7 14 " y="-0" fill="rgb(38,38,38)">300</text>
   </g>
   <g xml:space="preserve" font-family="FreeSans" font-style="normal" font-weight="normal" font-size="12" transform="translate(27.361,159.506) rotate(-0,21,-5)">
    <text x="0 7 14 " y="-0" fill="rgb(38,38,38)">320</text>
   </g>
   <g xml:space="preserve" font-family="FreeSans" font-style="normal" font-weight="normal" font-size="12" transform="translate(27.361,124.61) rotate(-0,21,-5)">
    <text x="0 7 14 " y="-0" fill="rgb(38,38,38)">340</text>
   </g>
   <g xml:space="preserve" font-family="FreeSans" font-style="normal" font-weight="normal" font-size="12" transform="translate(27.361,89.7133) rotate(-0,21,-5)">
    <text x="0 7 14 " y="-0" fill="rgb(38,38,38)">360</text>
   </g>
   <g xml:space="preserve" font-family="FreeSans" font-style="normal" font-weight="normal" font-size="12" transform="translate(27.361,54.8168) rotate(-0,21,-5)">
    <text x="0 7 14 " y="-0" fill="rgb(38,38,38)">380</text>
   </g>
   <polyline stroke-linejoin="miter" stroke="#262626" points="54.3628,276.644 378.447,276.644" fill="none" stroke-dasharray="32,0" stroke-width="2" stroke-linecap="square"/>
   <polyline stroke-linejoin="miter" stroke="#262626" points="54.3628,23.5225 378.447,23.5225" fill="none" stroke-dasharray="32,0" stroke-width="2" stroke-linecap="square"/>
   <polyline stroke-linejoin="miter" stroke="#262626" points="54.3628,276.644 54.3628,23.5225" fill="none" stroke-dasharray="32,0" stroke-width="2" stroke-linecap="square"/>
   <polyline stroke-linejoin="miter" stroke="#262626" points="378.447,276.644 378.447,23.5225" fill="none" stroke-dasharray="32,0" stroke-width="2" stroke-linecap="square"/>
   <g xml:space="preserve" font-family="FreeSans" font-style="normal" font-weight="normal" font-size="12" transform="translate(178.905,313.648) rotate(-0,37.5,-13)">
    <text x="0 8 18 21 27 33 36 42 48 51 55 61 71 " y="-3" fill="rgb(38,38,38)">Emission (nm)</text>
   </g>
   <g xml:space="preserve" font-family="FreeSans" font-style="normal" font-weight="normal" font-size="12" transform="translate(-16.639,150.083) rotate(-90,39,0)">
    <text x="0 8 14 20 23 26 33 36 39 45 51 54 58 64 74 " y="-3" fill="rgb(38,38,38)">Excitation (nm)</text>
   </g>
   <polyline stroke-linejoin="miter" stroke="#000000" points="325.499,276.644 325.893,274.808 326.107,276.644" fill="none" stroke-width="2" stroke-linecap="butt"/>
   <polyline stroke-linejoin="miter" stroke="#000000" points="327.577,233.023 327.577,233.023 327.688,234.801 328.468,237.811 329.227,241.748 328.468,243.566 327.688,246.958 326.787,245.286 325.893,248.003 324.974,249.612 324.813,250.35 324.974,250.841 325.893,251.148 326.787,252.892 327.688,251.824 328.468,254.392 329.371,256.231 330.272,254.619 331.166,255.264 332.068,254.868 332.848,254.699 333.75,256.772 334.652,255.729 335.545,256.358 336.448,257.007 337.228,256.269 338.129,257.669 338.618,259.196 338.129,260.138 337.228,261.291 336.448,261.018 335.545,261.211 334.652,262.415 333.75,261.384 332.848,262.492 332.068,262.939 331.166,263.136 330.272,262.91 329.371,261.503 328.468,264.146 327.688,263.686 326.787,266.183 325.893,266.552 324.974,265.912 324.185,266.637 323.274,267.303 322.363,267.239 322.133,267.92 322.363,269.556 323.274,271.151 324.185,272.835 324.705,276.644" fill="none" stroke-width="2" stroke-linecap="butt"/>
   <polyline stroke-linejoin="miter" stroke="#000000" points="324.185,214.125 324.185,214.125 323.274,215.354 322.363,214.978 321.575,213.764 320.655,213.005 319.744,210.099 319.218,206.851 318.833,202.859 318.62,198.127 318.045,193.982 317.134,196.625 316.232,192.893 315.33,195.946 314.55,193.059 314.128,189.403 313.648,187.087 312.772,189.403 312.754,189.497 312.741,189.403 311.852,186.439 310.95,188.863 310.17,183.295 309.269,181.603 308.375,183.381 307.455,182.102 306.667,184.046 305.756,181.183 305.452,180.557 305.756,178.142 306.667,172.602 307.455,178.442 308.375,174.707 309.269,174.249 309.454,171.955 309.269,171.504 308.375,169.628 307.455,167.641 306.667,171.344 305.756,169.632 304.845,167.147 304.057,165.834 303.505,163.23 303.137,161.171 302.71,163.23 302.226,165.374 301.842,163.23 301.315,160.203 300.61,163.23 300.527,163.615 300.427,163.23 299.616,159.121 298.696,159.71 297.908,156.348 296.997,155.72 296.2,154.506 296.997,152.551 297.908,152.431 298.696,150.65 299.46,145.66 298.696,141.127 297.908,137.58 296.997,140.076 296.238,137.058 296.997,134.109 297.908,136.047 298.696,129.543 298.989,128.212 299.061,119.61 298.696,112.074 298.652,110.764 297.908,105.245 297.523,102.162 297.908,100.374 298.696,101.869 299.616,101.953 300.527,97.3086 301.315,93.4365 302.226,98.0889 303.137,96.0967 303.704,93.3154 304.057,91.6807 304.845,91.4937 305.558,93.3154 305.756,93.7622 305.84,93.3154 306.667,88.9258 307.455,88.9546 308.375,88.1655 309.269,88.3066 310.17,87.7622 310.594,84.7134 310.17,82.8853 309.269,82.3105 308.375,82.042 307.455,82.2598 306.667,81.3784 305.756,79.7222 304.845,79.875 304.057,79.6851 303.137,79.3662 302.226,77.5747 301.413,75.8672 301.315,75.6226 300.527,74.8745 299.616,75.5249 299.393,75.8672 298.696,76.5947 298.411,75.8672 297.908,73.9932 296.997,74.1108 296.086,71.1035 295.298,71.2544 294.378,69.6997 293.467,68.5122 292.556,70.0005 291.768,68.4561 290.857,67.3481 289.937,67.3418 289.894,67.2651 289.937,66.8628 290.857,66.9312 291.717,58.4189 290.857,50.9834 289.937,50.208 289.149,53.1621 288.238,50.5425 287.327,51.1289 286.997,49.8169 286.539,42.7812 285.619,42.4702 285.467,41.0928 284.708,33.395 283.797,33.8579 283.734,32.3687 283.009,23.5225" fill="none" stroke-width="2" stroke-linecap="butt"/>
   <polyline stroke-linejoin="miter" stroke="#000000" points="280.711,23.5225 281.178,26.5552 282.098,23.5225" fill="none" stroke-width="2" stroke-linecap="butt"/>
   <polyline stroke-linejoin="miter" stroke="#000000" points="278.005,23.5225 278.568,25.8101 279.479,25.2036 279.853,23.5225" fill="none" stroke-width="2" stroke-linecap="butt"/>
   <polyline stroke-linejoin="miter" stroke="#000000" points="276.646,23.5225 276.86,24.2651 277.455,23.5225" fill="none" stroke-width="2" stroke-linecap="butt"/>
   <polyline stroke-linejoin="miter" stroke="#000000" points="240.571,23.5225 240.957,25.5977 241.582,23.5225" fill="none" stroke-width="2" stroke-linecap="butt"/>
   <polyline stroke-linejoin="miter" stroke="#000000" points="168.505,276.644 169.159,274.113 169.947,273.196 170.884,271.403 171.672,268.952 172.61,269.353 173.218,267.92 172.61,266.461 171.672,266.968 170.884,264.589 169.947,263.258 169.159,263.802 168.312,259.196 169.159,256.348 169.947,256.464 170.884,254.824 171.672,252.845 172.61,253.028 173.538,250.384 173.549,250.35 173.538,250.19 172.61,242.595 172.495,241.748 172.61,239.976 173.277,233.023 173.538,231.786 174.327,231.077 175.264,225.211 176.052,227.119 176.989,225.663 177.196,224.299 176.989,223.372 176.052,221.101 175.264,223.674 174.327,218.229 173.828,215.453 173.538,212.696 173.046,206.851 172.61,204.396 171.672,202.489 170.884,201.173 169.947,199.538 169.474,198.127 169.947,196.056 170.884,193.446 171.238,189.403 171.672,184.948 172.61,185.893 173.448,180.557 172.61,173.638 172.232,171.955 172.61,170.931 173.538,169.633 174.327,169.603 175.264,166.842 176.052,164.523 176.302,163.23 176.989,160.091 177.926,158.839 178.741,158.363 179.678,157.541 180.341,154.506 180.493,153.305 181.356,145.66 181.43,145.312 182.245,142.018 183.182,138.61 183.774,137.058 183.997,136.481 184.934,134.699 185.749,132.233 186.445,128.212 186.677,127.642 187.465,126.778 188.402,123.685 189.19,123.642 189.74,119.61 190.128,115.767 191.056,115.187 191.845,112.346 192.669,110.764 192.782,110.593 193.57,106.059 194.507,103.978 195.445,105.577 196.172,102.162 195.799,93.3154 195.445,91.7461 194.507,91.0029 193.57,87.7783 192.782,88.208 192.461,84.7134 192.782,84.0161 193.57,84.0312 194.507,83.2461 195.445,82.4165 196.259,81.5264 197.196,80.2666 198.011,79.4058 198.948,78.5068 199.763,78.8423 200.7,76.5898 201.515,77.0122 202.33,75.8672 202.452,75.71 203.267,73.873 203.917,75.8672 204.195,76.6548 204.678,75.8672 204.983,75.2056 205.92,74.3984 206.709,75.1724 207.646,73.542 208.574,73.4941 209.363,71.8687 210.3,71.5034 211.088,70.7651 212.025,70.8125 212.954,69.1587 213.742,69.3804 214.68,69.063 215.468,68.0293 216.405,67.4219 216.564,67.2651 217.333,61.564 218.034,58.4189 218.122,58.0527 218.203,58.4189 219.059,61.0728 219.339,58.4189 219.847,53.54 220.785,50.5898 221.713,51.103 222.133,49.8169 222.501,48.3628 223.438,47.9629 224.227,47.1025 225.164,45.4546 225.818,41.0928 226.092,40.1997 226.558,41.0928 226.881,42.126 227.115,41.0928 227.818,38.416 228.606,33.146 228.958,32.3687 229.543,31.8584 230.472,31.4971 231.26,29.1201 232.198,28.4556 232.986,28.6138 233.923,29.4429 234.852,24.7397 235.64,25.5093 236.168,23.5225" fill="none" stroke-width="2" stroke-linecap="butt"/>
   <polyline stroke-linejoin="miter" stroke="#000000" points="320.932,267.92 320.655,267.299 320.083,267.92 320.655,269.083 320.932,267.92" fill="none" stroke-width="2" stroke-linecap="butt"/>
   <polyline stroke-linejoin="miter" stroke="#000000" points="168.032,259.196 167.416,258.375 166.969,259.196 167.416,260.332 168.032,259.196" fill="none" stroke-width="2" stroke-linecap="butt"/>
   <polyline stroke-linejoin="miter" stroke="#000000" points="318.35,206.851 318.045,205.411 317.134,206.528 317.127,206.851 317.134,206.939 318.045,207.813 318.35,206.851" fill="none" stroke-width="2" stroke-linecap="butt"/>
   <polyline stroke-linejoin="miter" stroke="#000000" points="301.592,145.66 301.315,144.142 300.527,144.498 300.113,145.66 300.527,146.974 301.315,147.067 301.592,145.66" fill="none" stroke-width="2" stroke-linecap="butt"/>
   <polyline stroke-linejoin="miter" stroke="#000000" points="300.614,128.212 300.527,126.211 300.299,128.212 300.527,129.046 300.614,128.212" fill="none" stroke-width="2" stroke-linecap="butt"/>
   <polyline stroke-linejoin="miter" stroke="#000000" points="301.967,110.764 301.315,106.926 300.553,110.764 301.315,114.969 301.967,110.764" fill="none" stroke-width="2" stroke-linecap="butt"/>
   <polyline stroke-linejoin="miter" stroke="#000000" points="300.325,110.764 299.616,104.742 299.031,110.764 299.616,112.238 300.325,110.764" fill="none" stroke-width="2" stroke-linecap="butt"/>
   <polyline stroke-linejoin="miter" stroke="#000000" points="312.078,84.7134 311.852,83.9761 311.556,84.7134 311.852,85.6831 312.078,84.7134" fill="none" stroke-width="2" stroke-linecap="butt"/>
   <polyline stroke-linejoin="miter" stroke="#000000" points="287.782,67.2651 287.327,66.7642 287.288,67.2651 287.327,67.4385 287.782,67.2651" fill="none" stroke-width="2" stroke-linecap="butt"/>
   <polyline stroke-linejoin="miter" stroke="#000000" points="286.704,32.3687 286.539,31.2148 285.711,32.3687 286.539,37.603 286.704,32.3687" fill="none" stroke-width="2" stroke-linecap="butt"/>
   <polyline stroke-linejoin="miter" stroke="#000000" points="287.492,250.35 287.492,250.35 288.238,247.874 289.149,242.299 289.937,246.437 290.835,241.748 289.937,236.711 289.341,233.023 289.149,232.249 288.238,231.393 287.327,232.089 286.539,230.426 285.619,230.599 284.708,229.56 283.797,228.762 283.009,228.046 282.098,227.5 281.178,228.294 280.39,225.154 279.862,224.299 279.744,215.453 279.479,213.747 279.312,215.453 278.568,222.368 277.996,215.453 277.78,212.392 276.86,209.95 275.949,213.283 275.206,206.851 275.949,200.506 276.86,198.501 276.897,198.127 276.86,197.967 275.949,196.805 275.038,196.658 274.25,195.075 273.339,193.932 272.419,195.463 271.631,192.773 270.78,189.403 270.72,189.231 269.809,189.331 269.73,189.403 269.021,190.123 268.668,189.403 268.101,188.268 267.19,185.62 266.279,186.393 265.491,184.554 264.58,186.926 263.643,183.103 262.854,183.269 261.917,186.609 261.129,181.15 260.2,180.829 259.263,181.137 258.869,180.557 259.263,177.989 260.2,180.016 261.129,179.073 261.917,173.354 262.854,175.317 263.643,177.473 264.58,174.783 265.122,171.955 264.58,169.225 263.643,167.151 262.854,169.058 261.917,169.447 261.129,167.169 260.2,167.339 259.263,163.23 259.384,154.506 259.263,152.358 259.068,145.66 258.475,140.624 257.613,137.058 258.475,129.054 259.263,128.352 259.285,128.212 259.263,128.075 258.475,126.817 257.538,127.893 256.749,123.117 255.942,119.61 256.749,117.544 257.538,114.916 258.475,116.546 259.263,112.487 260.2,113.213 260.548,110.764 260.2,110.096 259.263,109.642 258.475,107.305 257.538,109.899 256.749,106.309 255.821,107.333 254.901,105.682 254.113,107.425 253.202,104.292 252.291,103.955 251.502,103.394 250.583,102.871 249.773,102.162 250.583,100.746 251.502,99.0898 252.291,98.5698 253.202,99.6865 254.113,95.9053 254.901,97.5137 255.821,93.7925 256.749,95.7354 257.538,96.0049 258.475,95.4692 258.994,93.3154 259.263,92.0806 260.2,90.2739 261.129,91.8384 261.917,92.2305 262.854,91.7881 263.643,88.0557 264.58,91.7715 265.491,86.8013 266.239,84.7134 265.491,82.9487 264.58,80.8154 263.643,82.9946 262.854,80.9385 261.917,80.771 261.129,79.4375 260.2,80.1738 259.263,80.29 258.475,79.8086 257.538,79.5928 256.749,78.7612 255.821,79.3516 254.901,78.981 254.113,79.1846 253.202,78.6523 252.291,77.5054 251.502,77.6694 250.583,78.1548 249.672,77.4976 248.761,77.7388 247.973,77.9478 247.062,78.4741 246.125,77.4595 245.336,77.3276 244.399,77.2588 243.611,77.4565 242.682,77.6763 241.745,78.4849 240.957,77.5962 240.02,79.6304 239.231,77.7749 238.303,78.7407 237.365,78.2104 236.577,78.4951 235.64,79.2808 234.852,79.4663 233.923,78.7129 232.986,80.9487 232.198,79.5396 231.26,80.1792 230.472,82.0342 229.543,81.6733 228.606,82.1416 227.818,82.3403 226.881,82.9199 226.092,82.2515 225.164,83.4111 224.525,84.7134 225.164,89.2812 226.092,91.0571 226.881,88.5405 227.818,88.897 228.606,92.667 229.543,93.0244 229.905,93.3154 230.472,94.0522 231.26,94.9556 232.198,95.1455 232.986,96.0894 233.923,101.218 234.246,102.162 233.923,102.39 232.986,105.204 232.198,103.394 231.26,105.981 230.472,107.366 229.634,102.162 229.543,96.4116 229.472,102.162 228.606,105.782 227.818,107.089 226.881,106.194 226.092,107.958 225.164,108.24 224.227,107.292 223.438,108.125 222.546,110.764 222.501,111.387 222.43,110.764 221.713,109.354 220.785,110.388 220.175,110.764 220.785,111.949 221.713,116.029 221.981,119.61 221.713,120.813 220.785,122.059 219.847,121.708 219.059,123.527 218.122,123.698 217.333,124.269 216.405,124.389 215.468,127.426 215.249,128.212 214.68,131.863 213.742,133.083 212.954,133.841 212.603,137.058 212.025,138.167 211.088,139.666 210.3,137.102 209.363,140.188 208.574,140.894 207.646,141.149 206.709,140.789 206.055,145.66 206.709,153.808 206.869,154.506 206.709,155.132 205.92,154.742 205.859,154.506 205.545,145.66 204.983,143.832 204.195,143.397 203.397,145.66 204.195,151.879 204.432,154.506 204.195,156.908 203.267,156.142 202.452,155.337 201.515,156.922 200.7,157.282 199.763,159.832 199.044,163.23 198.948,163.606 198.871,163.23 198.011,158.536 197.196,161.959 196.793,163.23 196.259,165.266 195.445,168.354 194.507,168.085 193.57,169.706 192.888,171.955 193.57,174.666 194.507,174.767 195.445,180.135 196.259,179.522 197.196,179.957 197.328,180.557 197.196,181.041 196.259,181.264 195.445,180.838 194.507,184.302 193.57,184.7 192.782,182.983 191.845,187.425 191.056,188.504 190.862,189.403 190.128,197.175 189.19,196.07 188.925,198.127 189.19,198.828 190.128,198.399 191.056,200.069 191.845,201.948 192.782,201.931 193.57,202.729 194.507,203.546 195.445,204.289 196.259,206.385 196.389,206.851 197.196,212.122 198.011,210.772 198.948,212.003 199.627,215.453 199.763,216.011 200.7,221.14 201.515,219.876 202.452,219.699 203.267,222.079 203.977,224.299 203.267,226.146 202.452,226.922 201.515,227.789 200.7,226.98 199.763,229.764 198.948,230.549 198.011,232.462 197.762,233.023 197.196,234.057 196.259,234.336 195.445,237.907 194.507,238.978 193.57,238.547 192.782,240.473 192.399,241.748 192.782,245.046 193.57,249.718 194.507,246.894 195.445,247.482 195.679,250.35 195.445,250.848 194.507,250.918 193.57,250.542 192.782,251.636 191.845,252.862 191.056,252.745 190.128,253.908 189.19,254.315 188.402,254.74 187.465,255.844 186.677,256.35 185.749,258.346 184.934,258.2 184.435,259.196 184.934,260.116 185.749,260.125 186.677,262.314 187.465,263.162 188.402,264.412 189.19,264.854 190.128,265.142 191.056,266.08 191.845,266.483 192.633,267.92 191.845,269.788 191.056,270.819 190.128,271.922 189.19,272.341 188.402,273.417 187.465,273.395 186.677,275.06 185.749,276.163 185.568,276.644" fill="none" stroke-width="2" stroke-linecap="butt"/>
   <polyline stroke-linejoin="miter" stroke="#000000" points="193.941,267.92 193.57,267.362 193.007,267.92 193.57,268.599 193.941,267.92" fill="none" stroke-width="2" stroke-linecap="butt"/>
   <polyline stroke-linejoin="miter" stroke="#000000" points="285.029,250.35 285.029,250.35 285.619,249.646 285.866,250.35 285.866,250.35" fill="none" stroke-width="2" stroke-linecap="butt"/>
   <polyline stroke-linejoin="miter" stroke="#000000" points="197.218,250.35 197.196,250.213 197.172,250.35 197.196,250.385 197.218,250.35" fill="none" stroke-width="2" stroke-linecap="butt"/>
   <polyline stroke-linejoin="miter" stroke="#000000" points="290.922,241.748 290.922,241.748 291.768,239.352 292.178,241.748 292.178,241.748" fill="none" stroke-width="2" stroke-linecap="butt"/>
   <polyline stroke-linejoin="miter" stroke="#000000" points="276.362,224.299 275.949,219.718 275.638,224.299 275.949,224.793 276.362,224.299" fill="none" stroke-width="2" stroke-linecap="butt"/>
   <polyline stroke-linejoin="miter" stroke="#000000" points="206.277,224.299 205.92,220.791 204.983,222.7 204.423,224.299 204.983,226.016 205.92,227.26 206.277,224.299" fill="none" stroke-width="2" stroke-linecap="butt"/>
   <polyline stroke-linejoin="miter" stroke="#000000" points="273.715,206.851 273.339,203.216 273.063,206.851 273.339,207.941 273.715,206.851" fill="none" stroke-width="2" stroke-linecap="butt"/>
   <polyline stroke-linejoin="miter" stroke="#000000" points="199.89,206.851 199.763,206.428 199.667,206.851 199.763,211.152 199.89,206.851" fill="none" stroke-width="2" stroke-linecap="butt"/>
   <polyline stroke-linejoin="miter" stroke="#000000" points="257.923,180.557 257.538,180.232 257.392,180.557 257.538,180.855 257.923,180.557" fill="none" stroke-width="2" stroke-linecap="butt"/>
   <polyline stroke-linejoin="miter" stroke="#000000" points="267.558,171.955 267.19,170.595 266.583,171.955 267.19,173.75 267.558,171.955" fill="none" stroke-width="2" stroke-linecap="butt"/>
   <polyline stroke-linejoin="miter" stroke="#000000" points="192.526,171.955 191.845,171.228 191.657,171.955 191.845,172.915 192.526,171.955" fill="none" stroke-width="2" stroke-linecap="butt"/>
   <polyline stroke-linejoin="miter" stroke="#000000" points="259.117,154.506 258.475,151.695 257.538,151.765 256.749,148.148 256.047,154.506 256.749,158.618 257.366,163.23 257.538,164.03 257.949,163.23 258.475,159.914 259.117,154.506" fill="none" stroke-width="2" stroke-linecap="butt"/>
   <polyline stroke-linejoin="miter" stroke="#000000" points="264.974,145.66 264.58,144.067 263.643,144.37 262.854,142.186 262.111,145.66 262.854,146.903 263.643,146.618 264.58,147.591 264.974,145.66" fill="none" stroke-width="2" stroke-linecap="butt"/>
   <polyline stroke-linejoin="miter" stroke="#000000" points="261.72,145.66 261.129,144.01 260.2,144.585 260.016,145.66 260.2,146.559 261.129,146.737 261.72,145.66" fill="none" stroke-width="2" stroke-linecap="butt"/>
   <polyline stroke-linejoin="miter" stroke="#000000" points="257.45,137.058 256.749,132.55 256.146,137.058 256.749,142.563 257.45,137.058" fill="none" stroke-width="2" stroke-linecap="butt"/>
   <polyline stroke-linejoin="miter" stroke="#000000" points="253.386,137.058 253.202,135.635 253.122,137.058 253.202,137.676 253.386,137.058" fill="none" stroke-width="2" stroke-linecap="butt"/>
   <polyline stroke-linejoin="miter" stroke="#000000" points="248.18,102.162 247.973,101.625 247.062,101.118 246.125,101.794 246.005,102.162 246.125,102.437 247.062,102.709 247.973,102.74 248.18,102.162" fill="none" stroke-width="2" stroke-linecap="butt"/>
   <polyline stroke-linejoin="miter" stroke="#000000" points="244.863,102.162 244.399,100.901 244.058,102.162 244.399,103.776 244.863,102.162" fill="none" stroke-width="2" stroke-linecap="butt"/>
   <polyline stroke-linejoin="miter" stroke="#000000" points="242.775,102.162 242.682,101.933 241.745,100.316 241.14,102.162 241.745,103.491 242.682,102.378 242.775,102.162" fill="none" stroke-width="2" stroke-linecap="butt"/>
   <polyline stroke-linejoin="miter" stroke="#000000" points="237.381,102.162 237.365,102.101 236.577,101.087 236.146,102.162 236.577,102.678 237.365,102.193 237.381,102.162" fill="none" stroke-width="2" stroke-linecap="butt"/>
   <polyline stroke-linejoin="miter" stroke="#000000" points="270.835,84.7134 270.72,84.5679 270.355,84.7134 270.72,84.9751 270.835,84.7134" fill="none" stroke-width="2" stroke-linecap="butt"/>
   <polyline stroke-linejoin="miter" stroke="#000000" points="268.57,84.7134 268.101,83.2354 267.19,84.6631 266.886,84.7134 267.19,84.8115 268.101,87.2515 268.57,84.7134" fill="none" stroke-width="2" stroke-linecap="butt"/>
   <polyline stroke-linejoin="miter" stroke="#000000" points="223.838,84.7134 223.438,84.1509 222.501,84.3013 222.127,84.7134 222.501,85.5054 223.438,86.7407 223.838,84.7134" fill="none" stroke-width="2" stroke-linecap="butt"/>
   <polyline stroke-linejoin="miter" stroke="#000000" points="253.493,276.644 254.113,275.811 254.901,273.96 255.821,276.449 256.039,276.644" fill="none" stroke-width="2" stroke-linecap="butt"/>
   <polyline stroke-linejoin="miter" stroke="#000000" points="212.958,276.644 213.742,273.673 214.68,273.063 215.468,273.773 216.405,272.426 217.333,271.449 218.122,272.29 219.059,271.915 219.847,271.62 220.785,272.022 221.713,270.835 222.501,270.212 223.438,270.753 224.227,270.034 225.164,270.647 226.092,270.271 226.881,270.854 227.818,271.423 228.606,271.243 229.543,270.022 230.472,269.991 231.26,269.559 231.783,267.92 231.26,267.03 230.472,267.11 229.543,266.804 228.606,266.378 227.818,266.982 226.881,266.587 226.092,266.597 225.164,266.653 224.227,267.13 223.438,266.24 222.501,266.536 221.713,266.37 220.785,265.572 219.847,265.36 219.059,265.839 218.122,265.214 217.333,265.475 216.405,264.277 215.468,262.928 214.68,263.822 213.742,262.307 212.954,263.233 212.025,263.106 211.088,262.934 210.3,262.893 209.363,261.668 208.574,261.956 207.646,260.667 206.709,261.763 205.92,260.712 204.983,260.082 204.195,259.987 203.499,259.196 204.195,258.555 204.983,258.384 205.92,257.978 206.709,257.011 207.646,258.084 208.574,256.977 209.363,256.892 210.3,256.576 211.088,255.34 212.025,255.936 212.954,255.269 213.742,255.95 214.68,254.349 215.468,255.09 216.405,253.943 217.333,254.047 218.122,253.298 219.059,253.14 219.847,252.869 220.785,252.64 221.713,253.12 222.501,252.583 223.438,252.227 224.227,251.921 225.164,251.343 226.092,251.223 226.881,251.502 227.452,250.35 226.881,243.002 226.092,246.073 225.164,243.293 224.227,243.888 223.854,241.748 224.227,240.483 225.164,241.136 226.092,240.057 226.881,240.752 227.56,241.748 227.818,242.539 228.329,250.35 228.606,250.783 228.976,250.35 228.606,247.948 227.871,241.748 228.606,238.442 229.543,240.778 230.472,237.237 231.26,237.419 232.198,237.515 232.986,234.944 233.923,235.392 234.852,233.697 235.64,234.646 236.577,233.674 237.365,236.384 238.303,234.472 239.231,233.093 239.293,233.023 240.02,232.485 240.957,232.916 241.745,231.903 242.591,233.023 242.682,233.231 243.611,233.996 244.329,233.023 244.399,232.934 245.336,232.135 245.964,233.023 246.125,233.458 247.062,236.127 247.691,233.023 247.973,231.825 248.193,233.023 248.761,236.668 249.672,233.331 250.583,236.464 251.502,233.777 252.291,235.964 253.202,237.589 254.113,237.805 254.901,233.589 255.821,237.114 256.749,239.995 257.538,238.84 258.475,241.269 258.621,241.748 258.475,242.272 257.538,243.419 256.749,244.604 255.821,246.77 254.901,247.321 254.113,246.049 253.202,247.248 252.291,249.658 251.502,250.35 252.291,250.645 253.202,251.287 254.113,251.629 254.901,251.691 255.821,251.885 256.749,252.514 257.538,253.538 258.475,253.799 259.263,253.5 260.2,253.765 261.129,254.213 261.917,254.625 262.854,254.444 263.643,255.029 264.58,254.966 265.491,255.704 266.279,256.304 267.19,256.111 268.101,256.482 269.021,258.274 269.809,258.315 270.501,259.196 269.809,260.021 269.021,259.832 268.101,261.399 267.19,261.32 266.279,261.333 265.491,261.806 264.58,262.619 263.643,262.945 262.854,262.985 261.917,262.788 261.129,263.097 260.2,262.856 259.263,263.494 258.475,263.025 257.538,263.642 256.749,263.955 255.821,264.835 254.901,265.027 254.113,264.843 253.202,265.058 252.291,265.328 251.502,265.165 250.583,265.69 249.672,266.389 248.761,266.162 247.973,266.15 247.062,266.639 246.125,266.228 245.336,266.511 244.399,267.454 243.611,267.648 242.682,266.806 241.745,266.811 240.957,266.71 240.02,267.436 239.331,267.92 240.02,269.057 240.957,270.678 241.745,270.459 242.682,270.35 243.611,269.209 244.399,269.013 245.336,270.251 246.125,270.874 247.062,270.504 247.973,271.055 248.761,271.22 249.672,272.243 250.583,272.117 251.502,272.432 252.291,273.246 253.125,276.644" fill="none" stroke-width="2" stroke-linecap="butt"/>
   <polyline stroke-linejoin="miter" stroke="#000000" points="205.81,276.644 205.92,276.356 206.066,276.644" fill="none" stroke-width="2" stroke-linecap="butt"/>
   <polyline stroke-linejoin="miter" stroke="#000000" points="239.109,267.92 238.303,267.446 237.365,267.308 237.04,267.92 237.365,269.764 238.303,268.786 239.109,267.92" fill="none" stroke-width="2" stroke-linecap="butt"/>
   <polyline stroke-linejoin="miter" stroke="#000000" points="235.978,267.92 235.64,267.456 234.979,267.92 235.64,268.869 235.978,267.92" fill="none" stroke-width="2" stroke-linecap="butt"/>
   <polyline stroke-linejoin="miter" stroke="#000000" points="234,267.92 233.923,267.911 232.986,266.991 232.536,267.92 232.986,269.603 233.923,267.941 234,267.92" fill="none" stroke-width="2" stroke-linecap="butt"/>
   <polyline stroke-linejoin="miter" stroke="#000000" points="272.461,259.196 272.419,259.151 272.34,259.196 272.419,259.232 272.461,259.196" fill="none" stroke-width="2" stroke-linecap="butt"/>
   <polyline stroke-linejoin="miter" stroke="#000000" points="248.554,250.35 247.973,250.006 247.782,250.35 247.973,250.518 248.554,250.35" fill="none" stroke-width="2" stroke-linecap="butt"/>
   <polyline stroke-linejoin="miter" stroke="#000000" points="232.409,250.35 232.198,248.909 231.736,250.35 232.198,250.652 232.409,250.35" fill="none" stroke-width="2" stroke-linecap="butt"/>
   <polyline stroke-linejoin="miter" stroke="#000000" points="231.021,250.35 230.472,247.433 229.969,250.35 230.472,251.009 231.021,250.35" fill="none" stroke-width="2" stroke-linecap="butt"/>
   <polyline stroke-linejoin="miter" stroke="#000000" points="262.157,241.748 261.917,240.423 261.129,240.029 260.2,240.653 259.896,241.748 260.2,242.808 261.129,242.944 261.917,242.657 262.157,241.748" fill="none" stroke-width="2" stroke-linecap="butt"/>
  </g>
 </g>
</svg>
